<svg width="18" height="18" viewBox="0 0 18 18" fill="none" xmlns="http://www.w3.org/2000/svg">
<path d="M16.5 7.33464H1.5M12.3333 0.667969V4.0013M5.66667 0.667969V4.0013M5.5 17.3346H12.5C13.9001 17.3346 14.6002 17.3346 15.135 17.0622C15.6054 16.8225 15.9878 16.44 16.2275 15.9696C16.5 15.4348 16.5 14.7348 16.5 13.3346V6.33464C16.5 4.9345 16.5 4.23444 16.2275 3.69966C15.9878 3.22925 15.6054 2.8468 15.135 2.60712C14.6002 2.33464 13.9001 2.33464 12.5 2.33464H5.5C4.09987 2.33464 3.3998 2.33464 2.86502 2.60712C2.39462 2.8468 2.01217 3.22925 1.77248 3.69966C1.5 4.23444 1.5 4.9345 1.5 6.33464V13.3346C1.5 14.7348 1.5 15.4348 1.77248 15.9696C2.01217 16.44 2.39462 16.8225 2.86502 17.0622C3.3998 17.3346 4.09987 17.3346 5.5 17.3346Z" stroke="#515164" stroke-width="1.25" stroke-linecap="round" stroke-linejoin="round"/>
</svg>
