<svg width="18" height="18" viewBox="0 0 18 18" fill="none" xmlns="http://www.w3.org/2000/svg">
<path d="M3.42959 15.2C3.93653 14.0056 5.12012 13.168 6.49935 13.168H11.4993C12.8786 13.168 14.0622 14.0056 14.5691 15.2M12.3327 6.91797C12.3327 8.75892 10.8403 10.2513 8.99935 10.2513C7.1584 10.2513 5.66602 8.75892 5.66602 6.91797C5.66602 5.07702 7.1584 3.58464 8.99935 3.58464C10.8403 3.58464 12.3327 5.07702 12.3327 6.91797ZM17.3327 9.0013C17.3327 13.6037 13.6017 17.3346 8.99935 17.3346C4.39698 17.3346 0.666016 13.6037 0.666016 9.0013C0.666016 4.39893 4.39698 0.667969 8.99935 0.667969C13.6017 0.667969 17.3327 4.39893 17.3327 9.0013Z" stroke="#FF355E" stroke-width="1.25" stroke-linecap="round" stroke-linejoin="round"/>
</svg>
